<mxfile host="app.diagrams.net" agent="Mozilla/5.0 (X11; Linux x86_64) AppleWebKit/537.36 (KHTML, like Gecko) Chrome/129.0.0.0 Safari/537.36" version="24.7.17">
  <diagram name="Page-1" id="Z83zEJ15DWKZfaFEz4YE">
    <mxGraphModel dx="1434" dy="688" grid="1" gridSize="10" guides="1" tooltips="1" connect="1" arrows="1" fold="1" page="1" pageScale="1" pageWidth="850" pageHeight="1100" math="0" shadow="0">
      <root>
        <mxCell id="0" />
        <mxCell id="1" parent="0" />
        <mxCell id="K0d8BCokQG8zKTT9BX28-1" value="Actor" style="shape=umlActor;verticalLabelPosition=bottom;verticalAlign=top;html=1;" parent="1" vertex="1">
          <mxGeometry x="90" y="100" width="30" height="60" as="geometry" />
        </mxCell>
        <mxCell id="K0d8BCokQG8zKTT9BX28-2" value="Actor" style="shape=umlActor;verticalLabelPosition=bottom;verticalAlign=top;html=1;" parent="1" vertex="1">
          <mxGeometry x="740" y="249.95" width="30" height="60" as="geometry" />
        </mxCell>
        <mxCell id="K0d8BCokQG8zKTT9BX28-5" value="Browse Books" style="ellipse;whiteSpace=wrap;html=1;" parent="1" vertex="1">
          <mxGeometry x="240" y="80" width="140" height="70" as="geometry" />
        </mxCell>
        <mxCell id="K0d8BCokQG8zKTT9BX28-6" value="Provide title&amp;nbsp;&lt;div&gt;information&lt;/div&gt;" style="ellipse;whiteSpace=wrap;html=1;" parent="1" vertex="1">
          <mxGeometry x="400" y="187.41000000000003" width="140" height="70" as="geometry" />
        </mxCell>
        <mxCell id="K0d8BCokQG8zKTT9BX28-7" value="Order books" style="ellipse;whiteSpace=wrap;html=1;" parent="1" vertex="1">
          <mxGeometry x="230" y="170" width="140" height="70" as="geometry" />
        </mxCell>
        <mxCell id="K0d8BCokQG8zKTT9BX28-8" value="Order software" style="ellipse;whiteSpace=wrap;html=1;" parent="1" vertex="1">
          <mxGeometry x="240" y="360" width="140" height="70" as="geometry" />
        </mxCell>
        <mxCell id="K0d8BCokQG8zKTT9BX28-9" value="handle customer&lt;div&gt;registration&lt;/div&gt;" style="ellipse;whiteSpace=wrap;html=1;" parent="1" vertex="1">
          <mxGeometry x="390" y="300" width="140" height="70" as="geometry" />
        </mxCell>
        <mxCell id="K0d8BCokQG8zKTT9BX28-11" value="Order cds" style="ellipse;whiteSpace=wrap;html=1;" parent="1" vertex="1">
          <mxGeometry x="230" y="260" width="140" height="70" as="geometry" />
        </mxCell>
        <mxCell id="K0d8BCokQG8zKTT9BX28-17" value="" style="line;strokeWidth=2;html=1;rotation=15;" parent="1" vertex="1">
          <mxGeometry x="120.68" y="164.82" width="120" height="10" as="geometry" />
        </mxCell>
        <mxCell id="K0d8BCokQG8zKTT9BX28-18" value="" style="line;strokeWidth=2;html=1;rotation=55;" parent="1" vertex="1">
          <mxGeometry x="63.45" y="274.95" width="230" height="10" as="geometry" />
        </mxCell>
        <mxCell id="K0d8BCokQG8zKTT9BX28-21" value="" style="line;strokeWidth=2;html=1;rotation=30;" parent="1" vertex="1">
          <mxGeometry x="109.03" y="217.41" width="168.98" height="10" as="geometry" />
        </mxCell>
        <mxCell id="K0d8BCokQG8zKTT9BX28-22" value="" style="line;strokeWidth=2;html=1;rotation=-15;" parent="1" vertex="1">
          <mxGeometry x="120.68" y="100" width="120" height="44.82" as="geometry" />
        </mxCell>
        <mxCell id="K0d8BCokQG8zKTT9BX28-26" value="" style="line;strokeWidth=2;html=1;rotation=-15;" parent="1" vertex="1">
          <mxGeometry x="532.04" y="275.53" width="220" height="44.82" as="geometry" />
        </mxCell>
        <mxCell id="K0d8BCokQG8zKTT9BX28-27" value="" style="line;strokeWidth=2;html=1;rotation=30;" parent="1" vertex="1">
          <mxGeometry x="529.28" y="170" width="230" height="44.82" as="geometry" />
        </mxCell>
        <mxCell id="SreuC9zSYin8scsG8nIH-1" value="" style="swimlane;startSize=0;" parent="1" vertex="1">
          <mxGeometry x="210" y="40" width="350" height="580" as="geometry" />
        </mxCell>
        <mxCell id="SreuC9zSYin8scsG8nIH-2" value="e book store" style="text;html=1;align=center;verticalAlign=middle;resizable=0;points=[];autosize=1;strokeColor=none;fillColor=none;" parent="SreuC9zSYin8scsG8nIH-1" vertex="1">
          <mxGeometry x="220" y="10" width="90" height="30" as="geometry" />
        </mxCell>
        <mxCell id="14DAYMR0LbOcj73CHX3o-1" value="order processing" style="ellipse;whiteSpace=wrap;html=1;" parent="SreuC9zSYin8scsG8nIH-1" vertex="1">
          <mxGeometry x="195" y="50" width="140" height="70" as="geometry" />
        </mxCell>
        <mxCell id="14DAYMR0LbOcj73CHX3o-2" value="shipping" style="ellipse;whiteSpace=wrap;html=1;" parent="SreuC9zSYin8scsG8nIH-1" vertex="1">
          <mxGeometry x="190" y="350" width="140" height="70" as="geometry" />
        </mxCell>
        <mxCell id="14DAYMR0LbOcj73CHX3o-3" value="support management" style="ellipse;whiteSpace=wrap;html=1;" parent="SreuC9zSYin8scsG8nIH-1" vertex="1">
          <mxGeometry x="180" y="440" width="140" height="70" as="geometry" />
        </mxCell>
        <mxCell id="14DAYMR0LbOcj73CHX3o-4" value="" style="line;strokeWidth=2;html=1;rotation=-40;" parent="1" vertex="1">
          <mxGeometry x="491.81" y="397.5" width="290" height="44.82" as="geometry" />
        </mxCell>
        <mxCell id="14DAYMR0LbOcj73CHX3o-5" value="" style="line;strokeWidth=2;html=1;rotation=-30;" parent="1" vertex="1">
          <mxGeometry x="515.85" y="326.02" width="240" height="44.82" as="geometry" />
        </mxCell>
        <mxCell id="14DAYMR0LbOcj73CHX3o-6" value="" style="line;strokeWidth=2;html=1;rotation=0;" parent="1" vertex="1">
          <mxGeometry x="524.02" y="225" width="215.98" height="44.82" as="geometry" />
        </mxCell>
      </root>
    </mxGraphModel>
  </diagram>
</mxfile>
